<?xml version="1.0" encoding="UTF-8"?> <!-- Generator: Adobe Illustrator 23.1.1, SVG Export Plug-In . SVG Version: 6.00 Build 0) --> <svg xmlns="http://www.w3.org/2000/svg" xmlns:xlink="http://www.w3.org/1999/xlink" x="0px" y="0px" viewBox="0 0 677.7 106.4" style="enable-background:new 0 0 677.7 106.4;" xml:space="preserve"> <style type="text/css"> .st0{fill:#FFFFFF;} .st1{fill:#3E3D40;} .st2{fill:#6AB023;} .st3{clip-path:url(#SVGID_2_);fill:#B1B3B4;} .st4{clip-path:url(#SVGID_2_);fill:#3E3D40;} .st5{clip-path:url(#SVGID_2_);fill:#6AB023;} </style> <g id="Ebene_5"> <rect class="st0" width="677.7" height="106.4"></rect> </g> <g id="Ebene_3"> <g> <polygon class="st1" points="34.1,77.8 34.1,16 15.6,16 15.6,91.9 75.4,91.9 75.4,77.8 34.1,77.8 "></polygon> <polygon class="st2" points="89.7,91.9 75.4,91.9 75.4,77.8 89.7,77.8 89.7,91.9 "></polygon> <g> <defs> <rect id="SVGID_1_" x="15.6" y="15.9" width="242.9" height="76"></rect> </defs> <clipPath id="SVGID_2_"> <use xlink:href="#SVGID_1_" style="overflow:visible;"></use> </clipPath> <polygon class="st3" points="155.6,29.4 155.6,16 95,16 95,91.9 113.2,91.9 113.2,63.1 146.7,63.1 146.7,49.4 113.2,49.4 113.2,29.4 155.6,29.4 "></polygon> <path class="st4" d="M258.4,29.2c0-4.5-2.6-13-18.1-13.2h0v13.4h0v48.4h-60.8V31.7h0V16c-0.1,0-0.2,0-0.2,0l0,0h-18.1 c0,0,0,54.1,0,61.9c0,10.3,7.4,14.1,18.1,14.1c6,0,54.3,0,61.1,0c5.8,0,17.3,0,18.1-14.1C258.6,74.3,258.4,33.7,258.4,29.2 L258.4,29.2z"></path> <path class="st5" d="M179.5,31.7v-2.3h60.8V16c-3.9-0.1-57,0-60.8,0L179.5,31.7L179.5,31.7L179.5,31.7z"></path> </g> </g> </g> <g id="Ebene_4"> <g> <path d="M286.9,45.6V18.6h1.9v25.1h14v1.9H286.9z"></path> <path d="M321.6,35.3c0,0.2,0,0.4,0,0.6c0,0.2,0,0.4,0,0.6H307c0,1.1,0.2,2.1,0.6,3.1c0.3,1,0.8,1.8,1.4,2.6 c0.5,0.6,1.2,1.1,1.9,1.5c0.7,0.4,1.6,0.5,2.7,0.5c1.7,0,3.1-0.6,4.1-1.7c0.4-0.4,0.7-0.7,0.9-1.2c0.2-0.4,0.4-0.9,0.6-1.5h2 c-0.1,0.8-0.4,1.6-0.8,2.2c-0.4,0.7-0.8,1.3-1.4,1.8c-0.7,0.7-1.5,1.2-2.4,1.6c-0.9,0.4-1.9,0.6-3,0.6c-1.4,0-2.5-0.3-3.5-0.8 c-1-0.5-1.8-1.2-2.5-1.9c-0.8-0.9-1.4-2-1.8-3.2c-0.4-1.2-0.6-2.6-0.6-4c0-1.2,0.1-2.4,0.4-3.5c0.3-1.1,0.7-2.2,1.5-3.2 c1.6-2.2,3.8-3.3,6.5-3.3c1.3,0,2.4,0.3,3.4,0.8c1,0.5,1.8,1.2,2.5,2c0.7,0.8,1.2,1.8,1.6,2.9C321.4,32.9,321.6,34.1,321.6,35.3z M319.6,34.8c0-0.9-0.2-1.8-0.5-2.6c-0.3-0.8-0.7-1.6-1.2-2.2c-0.5-0.6-1.2-1.2-1.9-1.5c-0.8-0.4-1.6-0.6-2.6-0.6 c-1,0-1.9,0.2-2.7,0.6c-0.8,0.4-1.5,0.9-2,1.5c-0.5,0.6-1,1.4-1.3,2.2c-0.3,0.8-0.5,1.7-0.5,2.7H319.6z"></path> <path d="M340.3,45.6V33.1c0-1.7-0.4-3-1.1-3.9c-0.8-0.9-2-1.4-3.7-1.4c-1.2,0-2.1,0.2-2.9,0.7s-1.5,1.1-1.9,1.9 c-0.5,0.8-0.8,1.7-1.1,2.6c-0.2,1-0.3,2-0.3,3v9.5h-1.9V18.1h1.9l0,11.9c0.3-0.6,0.6-1.2,1.1-1.7c0.5-0.5,1-0.9,1.5-1.3 c0.6-0.3,1.2-0.6,1.8-0.8c0.7-0.2,1.3-0.3,2-0.3c2.2,0,3.9,0.6,5,1.9c1.1,1.2,1.7,2.9,1.7,5.1v12.5H340.3z"></path> <path d="M359.2,28.4c-0.3-0.1-0.6-0.1-0.9-0.2c-0.3,0-0.6,0-0.9,0c-1.2,0-2.2,0.2-2.9,0.7c-0.8,0.5-1.4,1.1-1.8,1.9 s-0.8,1.7-1,2.7c-0.2,1-0.3,2-0.3,3v9.1h-1.9v-19h1.7l0.2,3.8c0.4-1.3,1.2-2.3,2.3-3c1.1-0.7,2.4-1,3.7-1c0.3,0,0.6,0,0.9,0 c0.3,0,0.6,0,0.9,0.1V28.4z"></path> <path d="M377.1,40.3c0,1.3-0.4,2.5-1.3,3.5c-0.7,0.8-1.6,1.3-2.6,1.7c-1.1,0.4-2.2,0.6-3.5,0.6c-1.3,0-2.5-0.2-3.5-0.6 c-1.1-0.4-2-1-2.7-1.8c-0.5-0.6-0.9-1.2-1.2-1.8c-0.2-0.6-0.4-1.3-0.4-2.1h1.9c0.1,1.1,0.6,2.1,1.4,2.9c0.6,0.5,1.2,0.9,2,1.2 c0.8,0.2,1.6,0.4,2.5,0.4c1,0,1.9-0.1,2.6-0.3c0.8-0.2,1.4-0.6,1.9-1.1c0.4-0.4,0.6-0.7,0.8-1.1c0.2-0.4,0.2-0.8,0.2-1.4 c0-0.9-0.3-1.6-0.9-2.3c-0.6-0.6-1.5-1-2.6-1.2l-3.7-0.5c-0.8-0.1-1.6-0.3-2.3-0.6c-0.8-0.3-1.4-0.7-2-1.3c-0.7-0.8-1.1-1.8-1.1-3 c0-0.8,0.1-1.4,0.4-2.1c0.3-0.6,0.7-1.2,1.2-1.6c0.7-0.6,1.5-1.1,2.4-1.4c0.9-0.3,1.8-0.4,2.8-0.4c1.1,0,2.2,0.2,3.2,0.6 c1,0.4,1.8,0.9,2.5,1.7c0.4,0.5,0.8,1.1,1,1.7c0.3,0.6,0.4,1.2,0.4,1.8h-1.9c-0.1-0.3-0.1-0.7-0.3-1.1c-0.1-0.4-0.4-0.8-0.7-1.2 c-0.4-0.5-1-0.9-1.7-1.2c-0.7-0.3-1.6-0.5-2.6-0.5c-1.5,0-2.6,0.3-3.4,0.9c-1,0.7-1.5,1.6-1.5,2.6c0,0.8,0.3,1.5,0.8,2.1 c0.5,0.6,1.5,0.9,2.9,1.1l3.6,0.5c0.9,0.1,1.7,0.4,2.3,0.7c0.7,0.3,1.2,0.8,1.6,1.2c0.4,0.5,0.8,1,1,1.6 C377,39.1,377.1,39.7,377.1,40.3z"></path> <path d="M391.8,45.4c-0.5,0.1-1.1,0.2-1.6,0.3c-0.5,0.1-1,0.1-1.6,0.1c-1.8,0-3-0.5-3.8-1.5c-0.8-1-1.1-2.4-1.1-4v-12h-3.8v-1.7 h3.8v-5.2l1.9-0.5v5.7h5.9v1.7h-5.9v11.9c0,0.6,0,1.1,0.1,1.5c0.1,0.5,0.3,0.9,0.5,1.2s0.6,0.6,1,0.8c0.4,0.2,0.9,0.3,1.6,0.3 c0.5,0,1,0,1.5-0.1c0.5-0.1,1-0.1,1.5-0.2V45.4z"></path> <path d="M409.7,45.5l-0.2-3.5c-0.3,0.6-0.6,1.2-1.1,1.7c-0.4,0.5-0.9,0.9-1.5,1.3c-0.6,0.3-1.2,0.6-1.8,0.8 c-0.7,0.2-1.3,0.3-2,0.3c-2.2,0-3.9-0.6-5-1.9c-1.1-1.2-1.7-2.9-1.7-5.1V26.5h1.9v12.4c0,1.7,0.4,3,1.1,3.9c0.8,0.9,2,1.3,3.7,1.3 c1.2,0,2.1-0.2,2.9-0.7c0.8-0.5,1.5-1.1,1.9-1.8c0.5-0.8,0.8-1.6,1.1-2.6c0.2-1,0.3-2,0.3-3v-9.5h1.9v19H409.7z"></path> <path d="M432,45.6V33.1c0-1.7-0.4-3-1.1-3.9c-0.8-0.9-2-1.4-3.7-1.4c-1.2,0-2.1,0.2-2.9,0.7s-1.5,1.1-1.9,1.9 c-0.5,0.8-0.8,1.7-1.1,2.6c-0.2,1-0.3,2-0.3,3v9.5H419V18.1h1.9l0,11.9c0.3-0.6,0.6-1.2,1.1-1.7c0.5-0.5,1-0.9,1.5-1.3 c0.6-0.3,1.2-0.6,1.8-0.8c0.7-0.2,1.3-0.3,2-0.3c2.2,0,3.9,0.6,5,1.9c1.1,1.2,1.7,2.9,1.7,5.1v12.5H432z"></path> <path d="M446.6,45.6c-0.2,0.1-0.4,0.1-0.7,0.2c-0.3,0.1-0.6,0.1-1,0.1c-1.2,0-2.2-0.3-2.8-1s-1-1.7-1-3.1V18.1h1.9v23.5 c0,0.7,0.1,1.2,0.4,1.6c0.3,0.4,0.8,0.6,1.6,0.6c0.4,0,0.7,0,0.9,0c0.2,0,0.5,0,0.7-0.1V45.6z"></path> <path d="M469.4,19.8c-0.4-0.1-0.8-0.1-1.2-0.2c-0.4-0.1-0.9-0.1-1.5-0.1c-2.4,0-3.6,1.2-3.6,3.7v3.3h6v1.7h-6v17.3h-1.9V28.3h-3.8 v-1.7h3.8v-3.3c0-0.7,0.1-1.4,0.3-2c0.2-0.6,0.6-1.2,1-1.7s1-0.9,1.7-1.2c0.7-0.3,1.4-0.4,2.3-0.4c0.6,0,1.1,0,1.5,0.1 s0.9,0.1,1.4,0.2V19.8z"></path> <path d="M485.8,45.5l-0.2-3.5c-0.3,0.6-0.6,1.2-1.1,1.7c-0.4,0.5-0.9,0.9-1.5,1.3c-0.6,0.3-1.2,0.6-1.8,0.8 c-0.7,0.2-1.3,0.3-2,0.3c-2.2,0-3.9-0.6-5-1.9c-1.1-1.2-1.7-2.9-1.7-5.1V26.5h1.9v12.4c0,1.7,0.4,3,1.1,3.9c0.8,0.9,2,1.3,3.7,1.3 c1.2,0,2.1-0.2,2.9-0.7c0.8-0.5,1.5-1.1,1.9-1.8c0.5-0.8,0.8-1.6,1.1-2.6c0.2-1,0.3-2,0.3-3v-9.5h1.9v19H485.8z M475.3,21.9v-2.4 h2.3v2.4H475.3z M482.2,21.9v-2.4h2.3v2.4H482.2z"></path> <path d="M504.9,28.4c-0.3-0.1-0.6-0.1-0.9-0.2c-0.3,0-0.6,0-0.9,0c-1.2,0-2.2,0.2-2.9,0.7c-0.8,0.5-1.4,1.1-1.8,1.9 s-0.8,1.7-1,2.7c-0.2,1-0.3,2-0.3,3v9.1H495v-19h1.7l0.2,3.8c0.4-1.3,1.2-2.3,2.3-3c1.1-0.7,2.4-1,3.7-1c0.3,0,0.6,0,0.9,0 c0.3,0,0.6,0,0.9,0.1V28.4z"></path> <path d="M305.5,81.3c0,1.5-0.2,2.9-0.6,4.1c-0.4,1.3-1,2.3-1.8,3.3c-0.8,0.9-1.8,1.7-3,2.2c-1.2,0.5-2.6,0.8-4.2,0.8 c-1.6,0-3-0.3-4.2-0.8c-1.2-0.5-2.2-1.2-3-2.2s-1.4-2-1.8-3.3c-0.4-1.3-0.6-2.6-0.6-4.1V64.2h1.9v17.1c0,1.2,0.1,2.3,0.4,3.3 c0.3,1,0.8,1.9,1.4,2.7c0.6,0.8,1.4,1.4,2.4,1.8c1,0.4,2.1,0.7,3.4,0.7s2.5-0.2,3.4-0.7c1-0.4,1.8-1,2.4-1.8 c0.6-0.8,1.1-1.7,1.4-2.7c0.3-1,0.4-2.1,0.4-3.3V64.2h1.9V81.3z"></path> <path d="M326,91.2V78.7c0-1.7-0.4-3-1.1-3.9c-0.8-0.9-2-1.3-3.7-1.3c-1.2,0-2.1,0.2-2.9,0.7c-0.8,0.5-1.5,1.1-1.9,1.8 c-0.5,0.8-0.8,1.6-1.1,2.6c-0.2,1-0.3,2-0.3,3v9.5h-1.9v-19h1.7l0.2,3.5c0.3-0.6,0.6-1.2,1.1-1.6c0.5-0.5,1-0.9,1.5-1.2 c0.6-0.3,1.2-0.6,1.8-0.8c0.7-0.2,1.3-0.3,2-0.3c2.2,0,3.9,0.6,5,1.9c1.1,1.2,1.7,2.9,1.7,5.1v12.5H326z"></path> <path d="M344.1,91c-0.5,0.1-1.1,0.2-1.6,0.3c-0.5,0.1-1,0.1-1.6,0.1c-1.8,0-3-0.5-3.8-1.5c-0.8-1-1.1-2.4-1.1-4v-12h-3.8v-1.7h3.8 v-5.2l1.9-0.5v5.7h5.9v1.7H338v11.9c0,0.6,0,1.1,0.1,1.5c0.1,0.5,0.3,0.9,0.5,1.2c0.2,0.3,0.6,0.6,1,0.8c0.4,0.2,0.9,0.3,1.6,0.3 c0.5,0,1,0,1.5-0.1c0.5-0.1,1-0.1,1.5-0.2V91z"></path> <path d="M363.6,80.9c0,0.2,0,0.4,0,0.6c0,0.2,0,0.4,0,0.6H349c0,1.1,0.2,2.1,0.6,3.1c0.3,1,0.8,1.8,1.4,2.6 c0.5,0.6,1.2,1.1,1.9,1.5c0.7,0.4,1.6,0.5,2.7,0.5c1.7,0,3.1-0.6,4.1-1.7c0.4-0.4,0.7-0.7,0.9-1.2c0.2-0.4,0.4-0.9,0.6-1.5h2 c-0.1,0.8-0.4,1.6-0.8,2.2c-0.4,0.7-0.8,1.3-1.4,1.8c-0.7,0.7-1.5,1.2-2.4,1.6c-0.9,0.4-1.9,0.6-3,0.6c-1.4,0-2.5-0.3-3.5-0.8 c-1-0.5-1.8-1.2-2.5-1.9c-0.8-0.9-1.4-2-1.8-3.2c-0.4-1.2-0.6-2.6-0.6-4c0-1.2,0.1-2.4,0.4-3.5c0.3-1.1,0.7-2.2,1.5-3.2 c1.6-2.2,3.8-3.3,6.5-3.3c1.3,0,2.4,0.3,3.4,0.8c1,0.5,1.8,1.2,2.5,2c0.7,0.8,1.2,1.8,1.6,2.9C363.4,78.5,363.6,79.7,363.6,80.9z M361.6,80.4c0-0.9-0.2-1.8-0.5-2.6c-0.3-0.8-0.7-1.6-1.2-2.2c-0.5-0.6-1.2-1.2-1.9-1.5c-0.8-0.4-1.6-0.6-2.6-0.6 c-1,0-1.9,0.2-2.7,0.6c-0.8,0.4-1.5,0.9-2,1.5c-0.5,0.6-1,1.4-1.3,2.2s-0.5,1.7-0.5,2.7H361.6z"></path> <path d="M379.1,74c-0.3-0.1-0.6-0.1-0.9-0.2c-0.3,0-0.6,0-0.9,0c-1.2,0-2.2,0.2-2.9,0.7c-0.8,0.5-1.4,1.1-1.8,1.9 c-0.5,0.8-0.8,1.7-1,2.7c-0.2,1-0.3,2-0.3,3v9.1h-1.9v-19h1.7l0.2,3.8c0.4-1.3,1.2-2.3,2.3-3c1.1-0.7,2.4-1,3.7-1 c0.3,0,0.6,0,0.9,0c0.3,0,0.6,0,0.9,0.1V74z"></path> <path d="M397,91.2V78.7c0-1.7-0.4-3-1.1-3.9c-0.8-0.9-2-1.3-3.7-1.3c-1.2,0-2.1,0.2-2.9,0.7c-0.8,0.5-1.5,1.1-1.9,1.8 c-0.5,0.8-0.8,1.6-1.1,2.6c-0.2,1-0.3,2-0.3,3v9.5h-1.9v-19h1.7l0.2,3.5c0.3-0.6,0.6-1.2,1.1-1.6c0.5-0.5,1-0.9,1.5-1.2 c0.6-0.3,1.2-0.6,1.8-0.8c0.7-0.2,1.3-0.3,2-0.3c2.2,0,3.9,0.6,5,1.9c1.1,1.2,1.7,2.9,1.7,5.1v12.5H397z"></path> <path d="M420.9,80.9c0,0.2,0,0.4,0,0.6c0,0.2,0,0.4,0,0.6h-14.5c0,1.1,0.2,2.1,0.6,3.1c0.3,1,0.8,1.8,1.4,2.6 c0.5,0.6,1.2,1.1,1.9,1.5c0.7,0.4,1.6,0.5,2.7,0.5c1.7,0,3.1-0.6,4.1-1.7c0.4-0.4,0.7-0.7,0.9-1.2c0.2-0.4,0.4-0.9,0.6-1.5h2 c-0.1,0.8-0.4,1.6-0.8,2.2c-0.4,0.7-0.8,1.3-1.4,1.8c-0.7,0.7-1.5,1.2-2.4,1.6c-0.9,0.4-1.9,0.6-3,0.6c-1.4,0-2.5-0.3-3.5-0.8 c-1-0.5-1.8-1.2-2.5-1.9c-0.8-0.9-1.4-2-1.8-3.2c-0.4-1.2-0.6-2.6-0.6-4c0-1.2,0.1-2.4,0.4-3.5c0.3-1.1,0.7-2.2,1.5-3.2 c1.6-2.2,3.8-3.3,6.5-3.3c1.3,0,2.4,0.3,3.4,0.8c1,0.5,1.8,1.2,2.5,2c0.7,0.8,1.2,1.8,1.6,2.9C420.7,78.5,420.9,79.7,420.9,80.9z M418.9,80.4c0-0.9-0.2-1.8-0.5-2.6c-0.3-0.8-0.7-1.6-1.2-2.2c-0.5-0.6-1.2-1.2-1.9-1.5c-0.8-0.4-1.6-0.6-2.6-0.6 c-1,0-1.9,0.2-2.7,0.6c-0.8,0.4-1.5,0.9-2,1.5c-0.5,0.6-1,1.4-1.3,2.2s-0.5,1.7-0.5,2.7H418.9z"></path> <path d="M439.6,91.2V78.7c0-1.7-0.4-3-1.1-3.9c-0.8-0.9-2-1.4-3.7-1.4c-1.2,0-2.1,0.2-2.9,0.7s-1.5,1.1-1.9,1.9 c-0.5,0.8-0.8,1.7-1.1,2.6s-0.3,2-0.3,3v9.5h-1.9V63.7h1.9l0,11.9c0.3-0.6,0.6-1.2,1.1-1.7s1-0.9,1.5-1.3c0.6-0.3,1.2-0.6,1.8-0.8 c0.7-0.2,1.3-0.3,2-0.3c2.2,0,3.9,0.6,5,1.9c1.1,1.2,1.7,2.9,1.7,5.1v12.5H439.6z"></path> <path d="M472.9,91.2V78.7c0-1.6-0.3-2.9-1-3.9s-1.8-1.4-3.5-1.4c-0.7,0-1.4,0.1-1.9,0.3c-0.5,0.2-1,0.5-1.5,1 c-0.7,0.7-1.3,1.5-1.7,2.5c-0.4,1-0.6,2-0.6,3.2v10.8h-1.9V78.7c0-1.6-0.3-2.9-1-3.9c-0.7-0.9-1.9-1.4-3.5-1.4 c-0.7,0-1.4,0.1-1.9,0.3c-0.5,0.2-1,0.5-1.5,1c-0.9,0.8-1.5,1.8-1.8,3c-0.3,1.2-0.5,2.5-0.5,3.9v9.5h-1.9v-19h1.7l0.2,3.3 c0.5-1.1,1.2-2,2.2-2.7c1-0.7,2.2-1.1,3.5-1.1c1.7,0,3,0.4,4,1.1c1,0.7,1.6,1.7,2,3c0.5-1.2,1.3-2.2,2.3-2.9s2.3-1.2,3.9-1.2 c1.1,0,2.1,0.2,2.9,0.5c0.8,0.3,1.5,0.8,2,1.4c0.5,0.6,0.9,1.4,1.1,2.2c0.2,0.8,0.4,1.8,0.4,2.8v12.5H472.9z"></path> <path d="M496.8,80.9c0,0.2,0,0.4,0,0.6c0,0.2,0,0.4,0,0.6h-14.5c0,1.1,0.2,2.1,0.6,3.1c0.3,1,0.8,1.8,1.4,2.6 c0.5,0.6,1.2,1.1,1.9,1.5c0.7,0.4,1.6,0.5,2.7,0.5c1.7,0,3.1-0.6,4.1-1.7c0.4-0.4,0.7-0.7,0.9-1.2c0.2-0.4,0.4-0.9,0.6-1.5h2 c-0.1,0.8-0.4,1.6-0.8,2.2c-0.4,0.7-0.8,1.3-1.4,1.8c-0.7,0.7-1.5,1.2-2.4,1.6c-0.9,0.4-1.9,0.6-3,0.6c-1.4,0-2.5-0.3-3.5-0.8 c-1-0.5-1.8-1.2-2.5-1.9c-0.8-0.9-1.4-2-1.8-3.2c-0.4-1.2-0.6-2.6-0.6-4c0-1.2,0.1-2.4,0.4-3.5c0.3-1.1,0.7-2.2,1.5-3.2 c1.6-2.2,3.8-3.3,6.5-3.3c1.3,0,2.4,0.3,3.4,0.8c1,0.5,1.8,1.2,2.5,2c0.7,0.8,1.2,1.8,1.6,2.9C496.6,78.5,496.8,79.7,496.8,80.9z M494.8,80.4c0-0.9-0.2-1.8-0.5-2.6c-0.3-0.8-0.7-1.6-1.2-2.2c-0.5-0.6-1.2-1.2-1.9-1.5c-0.8-0.4-1.6-0.6-2.6-0.6 c-1,0-1.9,0.2-2.7,0.6c-0.8,0.4-1.5,0.9-2,1.5c-0.5,0.6-1,1.4-1.3,2.2s-0.5,1.7-0.5,2.7H494.8z"></path> <path d="M515.5,91.2V78.7c0-1.7-0.4-3-1.1-3.9c-0.8-0.9-2-1.3-3.7-1.3c-1.2,0-2.1,0.2-2.9,0.7c-0.8,0.5-1.5,1.1-1.9,1.8 c-0.5,0.8-0.8,1.6-1.1,2.6c-0.2,1-0.3,2-0.3,3v9.5h-1.9v-19h1.7l0.2,3.5c0.3-0.6,0.6-1.2,1.1-1.6c0.5-0.5,1-0.9,1.5-1.2 c0.6-0.3,1.2-0.6,1.8-0.8c0.7-0.2,1.3-0.3,2-0.3c2.2,0,3.9,0.6,5,1.9c1.1,1.2,1.7,2.9,1.7,5.1v12.5H515.5z"></path> <path d="M538.1,85.9c0,1.3-0.4,2.5-1.3,3.5c-0.7,0.8-1.6,1.3-2.6,1.7c-1.1,0.4-2.2,0.6-3.5,0.6c-1.3,0-2.5-0.2-3.5-0.6 c-1.1-0.4-2-1-2.7-1.8c-0.5-0.6-0.9-1.2-1.2-1.8s-0.4-1.3-0.4-2.1h1.9c0.1,1.1,0.6,2.1,1.4,2.9c0.6,0.5,1.2,0.9,2,1.2 c0.8,0.2,1.6,0.4,2.5,0.4c1,0,1.9-0.1,2.6-0.3c0.8-0.2,1.4-0.6,1.9-1.1c0.4-0.4,0.6-0.7,0.8-1.1c0.2-0.4,0.2-0.8,0.2-1.4 c0-0.9-0.3-1.6-0.9-2.3c-0.6-0.6-1.5-1-2.6-1.2L529,82c-0.8-0.1-1.6-0.3-2.3-0.6c-0.8-0.3-1.4-0.7-2-1.3c-0.7-0.8-1.1-1.8-1.1-3 c0-0.8,0.1-1.4,0.4-2.1c0.3-0.6,0.7-1.2,1.2-1.6c0.7-0.6,1.5-1.1,2.4-1.4c0.9-0.3,1.8-0.4,2.8-0.4c1.1,0,2.2,0.2,3.2,0.6 c1,0.4,1.8,0.9,2.5,1.7c0.4,0.5,0.8,1.1,1,1.7c0.3,0.6,0.4,1.2,0.4,1.8h-1.9c-0.1-0.3-0.1-0.7-0.3-1.1c-0.1-0.4-0.4-0.8-0.7-1.2 c-0.4-0.5-1-0.9-1.7-1.2c-0.7-0.3-1.6-0.5-2.6-0.5c-1.5,0-2.6,0.3-3.4,0.9c-1,0.7-1.5,1.6-1.5,2.6c0,0.8,0.3,1.5,0.8,2.1 c0.5,0.6,1.5,0.9,2.9,1.1l3.6,0.5c0.9,0.1,1.7,0.4,2.3,0.7s1.2,0.8,1.6,1.2c0.4,0.5,0.8,1,1,1.6C538,84.7,538.1,85.3,538.1,85.9z"></path> <path d="M549.5,91.2c-0.2,0.1-0.4,0.1-0.7,0.2c-0.3,0-0.6,0.1-1,0.1c-1.2,0-2.2-0.3-2.8-1c-0.7-0.6-1-1.7-1-3.1V63.7h1.9v23.5 c0,0.7,0.1,1.2,0.4,1.6c0.3,0.4,0.8,0.6,1.6,0.6c0.4,0,0.7,0,0.9,0c0.2,0,0.5,0,0.7-0.1V91.2z"></path> <path d="M569.3,81.7c0,1.6-0.2,3.1-0.6,4.3c-0.4,1.3-1.1,2.4-2.1,3.4c-0.7,0.7-1.5,1.2-2.4,1.6c-0.9,0.4-2,0.6-3.2,0.6 c-1.2,0-2.2-0.2-3.2-0.6c-0.9-0.4-1.7-1-2.4-1.6c-1-1-1.7-2.1-2.1-3.4s-0.6-2.7-0.6-4.3s0.2-3.1,0.6-4.3c0.4-1.3,1.1-2.4,2.1-3.4 c0.7-0.7,1.4-1.2,2.4-1.6c0.9-0.4,2-0.6,3.2-0.6c1.2,0,2.2,0.2,3.2,0.6c0.9,0.4,1.7,1,2.4,1.6c1,1,1.7,2.1,2.1,3.4 C569.1,78.6,569.3,80,569.3,81.7z M567.4,81.7c0-1.2-0.1-2.4-0.4-3.5c-0.3-1.1-0.8-2.1-1.7-3c-0.5-0.5-1.1-0.9-1.8-1.2 c-0.7-0.3-1.5-0.5-2.4-0.5s-1.7,0.2-2.4,0.5c-0.7,0.3-1.3,0.7-1.8,1.2c-0.9,0.9-1.4,1.9-1.7,3c-0.3,1.1-0.4,2.3-0.4,3.5 s0.1,2.4,0.4,3.5c0.3,1.1,0.8,2.1,1.7,3c0.5,0.5,1.1,0.9,1.8,1.2c0.7,0.3,1.5,0.5,2.4,0.5s1.7-0.2,2.4-0.5 c0.7-0.3,1.3-0.7,1.8-1.2c0.9-0.9,1.4-1.9,1.7-3C567.2,84.1,567.4,82.9,567.4,81.7z"></path> <path d="M591,94c0,0.7-0.1,1.4-0.4,2c-0.3,0.6-0.6,1.1-1,1.5c-0.8,0.8-1.9,1.4-3.2,1.7c-1.3,0.3-2.8,0.5-4.3,0.5 c-1.4,0-2.8-0.2-4-0.5s-2.3-0.9-3.1-1.7c-0.4-0.4-0.8-0.9-1-1.5c-0.2-0.6-0.3-1.2-0.3-1.9c0-0.9,0.3-1.8,0.8-2.6 c0.5-0.8,1.2-1.4,2.1-1.9c-0.7-0.2-1.2-0.6-1.7-1.2c-0.5-0.6-0.7-1.2-0.7-1.9c0-0.8,0.2-1.5,0.6-2.1c0.4-0.6,1-1.1,1.7-1.5 c-0.6-0.6-1-1.3-1.4-2c-0.3-0.8-0.5-1.7-0.5-2.6c0-1,0.2-1.9,0.6-2.8s0.9-1.5,1.5-2.1c0.6-0.6,1.4-1,2.3-1.3 c0.9-0.3,1.8-0.5,2.8-0.5c1.7,0,3.2,0.4,4.5,1.3c0.3-0.8,0.7-1.4,1.5-1.9c0.7-0.5,1.5-0.7,2.4-0.7c0.1,0,0.2,0,0.4,0 c0.1,0,0.2,0,0.4,0v1.6c-0.1,0-0.2,0-0.4,0c-0.1,0-0.2,0-0.4,0c-0.7,0-1.3,0.2-1.7,0.5c-0.5,0.4-0.8,0.9-0.9,1.5 c0.5,0.6,0.9,1.2,1.1,1.9c0.3,0.7,0.4,1.5,0.4,2.4c0,1-0.2,2-0.6,2.8c-0.4,0.8-0.9,1.5-1.5,2.1c-0.6,0.6-1.4,1-2.3,1.3 c-0.9,0.3-1.8,0.5-2.8,0.5c-1.4,0-2.7-0.3-3.8-0.9c-0.5,0.2-1,0.5-1.3,0.9c-0.4,0.4-0.6,0.9-0.6,1.5c0,0.5,0.1,0.8,0.4,1.1 c0.3,0.3,0.6,0.5,1,0.7c0.4,0.1,0.8,0.2,1.3,0.2s0.9,0.1,1.3,0.1h4.2c1.2,0,2.3,0.2,3.3,0.5c1,0.3,1.7,0.8,2.3,1.4 c0.5,0.5,0.8,1,1.1,1.6C590.9,92.5,591,93.2,591,94z M589.1,94c0-0.5-0.1-1-0.2-1.3c-0.2-0.4-0.4-0.7-0.7-1 c-0.9-0.9-2.4-1.4-4.6-1.4h-5c-0.8,0.2-1.5,0.6-2.2,1.3c-0.6,0.6-1,1.5-1,2.6c0,0.5,0.1,1,0.3,1.4s0.4,0.7,0.7,1 c0.3,0.3,0.7,0.6,1.2,0.8c0.5,0.2,0.9,0.3,1.4,0.5s1,0.2,1.5,0.2c0.5,0,1,0.1,1.5,0.1c0.5,0,1,0,1.5-0.1c0.5,0,1.1-0.1,1.7-0.2 c0.6-0.1,1.1-0.3,1.6-0.5c0.5-0.2,0.9-0.5,1.3-0.9c0.3-0.3,0.5-0.6,0.7-1S589.1,94.5,589.1,94z M586.8,78.3c0-0.8-0.1-1.4-0.4-2.1 c-0.3-0.6-0.7-1.1-1.1-1.6c-0.5-0.4-1-0.8-1.7-1c-0.6-0.2-1.3-0.3-2.1-0.3c-0.7,0-1.4,0.1-2.1,0.3c-0.6,0.2-1.2,0.6-1.7,1 c-0.5,0.4-0.8,1-1.1,1.6c-0.3,0.6-0.4,1.3-0.4,2.1s0.1,1.4,0.4,2.1c0.3,0.6,0.6,1.1,1.1,1.5c0.5,0.4,1,0.7,1.7,1s1.3,0.3,2.1,0.3 c0.7,0,1.4-0.1,2.1-0.3s1.2-0.5,1.7-1c0.5-0.4,0.8-0.9,1.1-1.5C586.7,79.8,586.8,79.1,586.8,78.3z"></path> <path d="M595.3,66.9v-2.7h2.7v2.7H595.3z M595.6,91.2v-19h2v19H595.6z"></path> <path d="M618.9,85.9c0,1.3-0.4,2.5-1.3,3.5c-0.7,0.8-1.6,1.3-2.6,1.7c-1.1,0.4-2.2,0.6-3.5,0.6c-1.3,0-2.5-0.2-3.5-0.6 c-1.1-0.4-2-1-2.7-1.8c-0.5-0.6-0.9-1.2-1.2-1.8s-0.4-1.3-0.4-2.1h1.9c0.1,1.1,0.6,2.1,1.4,2.9c0.6,0.5,1.2,0.9,2,1.2 c0.8,0.2,1.6,0.4,2.5,0.4c1,0,1.9-0.1,2.6-0.3c0.8-0.2,1.4-0.6,1.9-1.1c0.4-0.4,0.6-0.7,0.8-1.1c0.2-0.4,0.2-0.8,0.2-1.4 c0-0.9-0.3-1.6-0.9-2.3c-0.6-0.6-1.5-1-2.6-1.2l-3.7-0.5c-0.8-0.1-1.6-0.3-2.3-0.6c-0.8-0.3-1.4-0.7-2-1.3c-0.7-0.8-1.1-1.8-1.1-3 c0-0.8,0.1-1.4,0.4-2.1c0.3-0.6,0.7-1.2,1.2-1.6c0.7-0.6,1.5-1.1,2.4-1.4c0.9-0.3,1.8-0.4,2.8-0.4c1.1,0,2.2,0.2,3.2,0.6 c1,0.4,1.8,0.9,2.5,1.7c0.4,0.5,0.8,1.1,1,1.7c0.3,0.6,0.4,1.2,0.4,1.8h-1.9c-0.1-0.3-0.1-0.7-0.3-1.1c-0.1-0.4-0.4-0.8-0.7-1.2 c-0.4-0.5-1-0.9-1.7-1.2c-0.7-0.3-1.6-0.5-2.6-0.5c-1.5,0-2.6,0.3-3.4,0.9c-1,0.7-1.5,1.6-1.5,2.6c0,0.8,0.3,1.5,0.8,2.1 c0.5,0.6,1.5,0.9,2.9,1.1l3.6,0.5c0.9,0.1,1.7,0.4,2.3,0.7s1.2,0.8,1.6,1.2c0.4,0.5,0.8,1,1,1.6C618.8,84.7,618.9,85.3,618.9,85.9 z"></path> <path d="M633.6,91c-0.5,0.1-1.1,0.2-1.6,0.3c-0.5,0.1-1,0.1-1.6,0.1c-1.8,0-3-0.5-3.8-1.5c-0.8-1-1.1-2.4-1.1-4v-12h-3.8v-1.7h3.8 v-5.2l1.9-0.5v5.7h5.9v1.7h-5.9v11.9c0,0.6,0,1.1,0.1,1.5c0.1,0.5,0.3,0.9,0.5,1.2c0.2,0.3,0.6,0.6,1,0.8c0.4,0.2,0.9,0.3,1.6,0.3 c0.5,0,1,0,1.5-0.1c0.5-0.1,1-0.1,1.5-0.2V91z"></path> <path d="M638.5,66.9v-2.7h2.7v2.7H638.5z M638.8,91.2v-19h2v19H638.8z"></path> <path d="M662.1,91.2L655.4,81l-5,5.4v4.7h-1.9V63.7h1.9v20l10.7-11.6h2.4l-6.7,7.3l7.6,11.7H662.1z"></path> </g> </g> </svg> 